<svg width="71" height="47" viewBox="0 0 71 47" fill="none" xmlns="http://www.w3.org/2000/svg">
<path fill-rule="evenodd" clip-rule="evenodd" d="M0.0632176 27.3294C-1.97646 48.6329 45.903 51.1541 62.2758 41.0721C82.7418 28.4695 59.7654 -8.40261 48.0608 2.82823C43.3923 7.30779 35.1364 8.72262 26.7683 10.1567C14.1564 12.3181 1.28934 14.5231 0.0632176 27.3294ZM24.6025 19.987C23.9112 19.409 22.9932 19.12 21.8485 19.12C20.5112 19.12 19.4175 19.6017 18.5675 20.565C17.7175 21.517 17.2925 22.8487 17.2925 24.56C17.2925 26.2713 17.7005 27.637 18.5165 28.657C19.3439 29.677 20.4205 30.187 21.7465 30.187C23.0839 30.187 24.1322 29.8583 24.8915 29.201C25.6622 28.5437 26.0475 27.654 26.0475 26.532H24.6025C24.6025 27.2687 24.3532 27.8637 23.8545 28.317C23.3672 28.759 22.6985 28.98 21.8485 28.98C20.8285 28.98 20.0522 28.5777 19.5195 27.773C18.9982 26.9683 18.7375 25.903 18.7375 24.577C18.7375 23.2397 19.0322 22.197 19.6215 21.449C20.2109 20.701 20.9532 20.327 21.8485 20.327C22.4945 20.327 23.0555 20.5253 23.5315 20.922C24.0189 21.3073 24.3759 21.8343 24.6025 22.503L26.0475 22.214C25.7869 21.296 25.3052 20.5537 24.6025 19.987ZM29.9113 18.423H28.5683V30H29.9113V18.423ZM38.059 27.62C37.9003 28.606 37.26 29.099 36.138 29.099C35.4013 29.099 34.829 28.8327 34.421 28.3C34.013 27.756 33.809 27.0647 33.809 26.226H39.368C39.538 24.9567 39.3396 23.88 38.773 22.996C38.2176 22.112 37.3676 21.67 36.223 21.67C35.0896 21.67 34.1773 22.0553 33.486 22.826C32.806 23.5967 32.466 24.628 32.466 25.92C32.466 27.212 32.806 28.249 33.486 29.031C34.166 29.8017 35.05 30.187 36.138 30.187C37.022 30.187 37.7586 29.966 38.348 29.524C38.9486 29.0707 39.3113 28.436 39.436 27.62H38.059ZM36.172 22.741C36.546 22.741 36.8633 22.809 37.124 22.945C37.8153 23.319 38.161 24.0727 38.161 25.206H33.826C33.894 24.5033 34.1263 23.9197 34.523 23.455C34.931 22.979 35.4806 22.741 36.172 22.741ZM46.655 23.149C46.961 23.4663 47.114 23.9933 47.114 24.73V25.767C46.3206 25.4723 45.4876 25.325 44.615 25.325C43.7423 25.325 43.0113 25.529 42.422 25.937C41.844 26.345 41.555 26.9117 41.555 27.637C41.555 28.3623 41.8156 28.9687 42.337 29.456C42.8696 29.9433 43.5723 30.187 44.445 30.187C45.7483 30.187 46.6493 29.6713 47.148 28.64L47.284 30H48.44V24.764C48.44 23.7213 48.1566 22.945 47.59 22.435C47.0233 21.925 46.2356 21.67 45.227 21.67C44.751 21.67 44.309 21.7153 43.901 21.806C42.5636 22.1007 41.895 22.8713 41.895 24.118H43.374C43.374 23.6193 43.5496 23.2567 43.901 23.03C44.2636 22.792 44.734 22.673 45.312 22.673C45.9013 22.673 46.349 22.8317 46.655 23.149ZM45.006 26.277C45.6066 26.277 46.3093 26.3903 47.114 26.617C47.114 27.365 46.876 27.977 46.4 28.453C45.9353 28.9177 45.3743 29.15 44.717 29.15C43.561 29.15 42.983 28.64 42.983 27.62C42.983 27.1553 43.17 26.8153 43.544 26.6C43.918 26.3847 44.4053 26.277 45.006 26.277ZM52.9207 26.039C52.966 24.0217 53.629 23.013 54.9097 23.013C55.261 23.013 55.6067 23.0697 55.9467 23.183L56.0147 21.874C55.72 21.772 55.4083 21.721 55.0797 21.721C54.0483 21.721 53.3287 22.2877 52.9207 23.421V21.857H51.5777V30H52.9207V26.039Z" fill="#3E3833"/>
</svg>
