<svg width="168" height="143" viewBox="0 0 168 143" fill="none" xmlns="http://www.w3.org/2000/svg">
<mask id="path-1-inside-1" fill="white">
<path fill-rule="evenodd" clip-rule="evenodd" d="M38.8059 23.1044C12.4441 26.8895 2.72646 39.2858 2.72646 39.2858L17.2962 142.065C17.2962 142.065 35.3539 131.238 53.765 128.595C72.176 125.951 92.5698 131.394 92.5698 131.394L92.537 131.162C94.6526 129.927 111.564 120.296 128.784 117.823C147.195 115.18 167.589 120.623 167.589 120.623L153.019 17.8438C153.019 17.8438 140.187 8.54789 113.825 12.333C88.4072 15.9825 78.4628 27.6375 77.7831 28.4677C75.9986 27.2941 63.1901 19.6032 38.8059 23.1044Z"/>
</mask>
<path fill-rule="evenodd" clip-rule="evenodd" d="M38.8059 23.1044C12.4441 26.8895 2.72646 39.2858 2.72646 39.2858L17.2962 142.065C17.2962 142.065 35.3539 131.238 53.765 128.595C72.176 125.951 92.5698 131.394 92.5698 131.394L92.537 131.162C94.6526 129.927 111.564 120.296 128.784 117.823C147.195 115.18 167.589 120.623 167.589 120.623L153.019 17.8438C153.019 17.8438 140.187 8.54789 113.825 12.333C88.4072 15.9825 78.4628 27.6375 77.7831 28.4677C75.9986 27.2941 63.1901 19.6032 38.8059 23.1044Z" fill="#F6CE46"/>
<path d="M2.72646 39.2858L-0.421563 36.818L-1.47319 38.1595L-1.23394 39.8472L2.72646 39.2858ZM38.8059 23.1044L39.3744 27.0638L38.8059 23.1044ZM17.2962 142.065L13.3358 142.626L14.182 148.595L19.353 145.495L17.2962 142.065ZM92.5698 131.394L91.5383 135.259L97.3785 136.817L96.5302 130.833L92.5698 131.394ZM92.537 131.162L90.5197 127.708L88.1994 129.063L88.5766 131.724L92.537 131.162ZM167.589 120.623L166.557 124.487L172.398 126.046L171.549 120.061L167.589 120.623ZM153.019 17.8438L156.979 17.2824L156.741 15.6008L155.366 14.6044L153.019 17.8438ZM113.825 12.333L114.393 16.2924L113.825 12.333ZM77.7831 28.4677L75.5852 31.8097L78.5955 33.7895L80.8781 31.0017L77.7831 28.4677ZM2.72646 39.2858C5.87449 41.7536 5.87311 41.7553 5.87178 41.757C5.87138 41.7576 5.87008 41.7592 5.86928 41.7602C5.86769 41.7622 5.86624 41.7641 5.86493 41.7657C5.86232 41.769 5.86028 41.7716 5.85882 41.7734C5.8559 41.7771 5.85529 41.7778 5.85701 41.7757C5.86045 41.7715 5.87322 41.7559 5.89553 41.7295C5.94014 41.6768 6.02286 41.5811 6.14534 41.4473C6.39029 41.1799 6.79415 40.7604 7.37002 40.2288C8.5213 39.166 10.3618 37.6531 12.9981 36.008C18.2578 32.7259 26.7512 28.8763 39.3744 27.0638L38.2374 19.145C24.4989 21.1176 14.9525 25.3587 8.76295 29.221C5.67458 31.1482 3.43807 32.9709 1.94347 34.3507C1.19641 35.0403 0.63513 35.6189 0.245672 36.0442C0.0509413 36.2568 -0.100854 36.4311 -0.211463 36.5618C-0.266769 36.6272 -0.311783 36.6817 -0.346725 36.7246C-0.364196 36.746 -0.37915 36.7646 -0.391613 36.7802C-0.397845 36.788 -0.403455 36.7951 -0.408445 36.8014C-0.41094 36.8045 -0.413281 36.8075 -0.415467 36.8103C-0.416559 36.8117 -0.418085 36.8136 -0.41863 36.8143C-0.420116 36.8162 -0.421563 36.818 2.72646 39.2858ZM21.2566 141.503L6.68687 38.7244L-1.23394 39.8472L13.3358 142.626L21.2566 141.503ZM53.1965 124.635C43.4732 126.031 33.9743 129.559 26.9984 132.667C23.4891 134.231 20.5708 135.71 18.5231 136.802C17.4984 137.349 16.6894 137.799 16.1309 138.117C15.8516 138.276 15.6348 138.401 15.4848 138.489C15.4098 138.533 15.3515 138.567 15.3104 138.592C15.2899 138.604 15.2736 138.613 15.2617 138.62C15.2558 138.624 15.251 138.627 15.2472 138.629C15.2454 138.63 15.2438 138.631 15.2425 138.632C15.2418 138.632 15.241 138.633 15.2407 138.633C15.24 138.633 15.2393 138.634 17.2962 142.065C19.353 145.495 19.3525 145.496 19.352 145.496C19.352 145.496 19.3516 145.496 19.3515 145.496C19.3513 145.496 19.3514 145.496 19.3517 145.496C19.3523 145.496 19.3541 145.495 19.3569 145.493C19.3625 145.49 19.3725 145.484 19.3866 145.475C19.415 145.458 19.4603 145.432 19.5221 145.396C19.6456 145.323 19.8347 145.214 20.0852 145.071C20.5861 144.787 21.3318 144.371 22.2877 143.861C24.2011 142.841 26.9479 141.448 30.2545 139.975C36.9102 137.009 45.6457 133.801 54.3335 132.554L53.1965 124.635ZM92.5698 131.394C93.6012 127.529 93.6005 127.529 93.5997 127.529C93.5993 127.529 93.5984 127.528 93.5977 127.528C93.5962 127.528 93.5944 127.527 93.5922 127.527C93.588 127.526 93.5825 127.524 93.5758 127.522C93.5624 127.519 93.544 127.514 93.5209 127.508C93.4745 127.496 93.4087 127.479 93.3242 127.457C93.1553 127.414 92.9116 127.353 92.5984 127.277C91.9723 127.126 91.0681 126.915 89.9296 126.673C87.6547 126.188 84.4345 125.572 80.6231 125.041C73.0476 123.986 62.9284 123.238 53.1965 124.635L54.3335 132.554C63.0126 131.308 72.2958 131.959 79.5199 132.965C83.1084 133.464 86.1373 134.044 88.2615 134.497C89.3227 134.723 90.1555 134.917 90.7166 135.053C90.9971 135.121 91.2095 135.174 91.3483 135.209C91.4177 135.227 91.4687 135.24 91.5006 135.249C91.5165 135.253 91.5277 135.256 91.534 135.257C91.5372 135.258 91.5391 135.259 91.5399 135.259C91.5402 135.259 91.5403 135.259 91.54 135.259C91.5399 135.259 91.5395 135.259 91.5394 135.259C91.5389 135.259 91.5383 135.259 92.5698 131.394ZM88.5766 131.724L88.6094 131.955L96.5302 130.833L96.4974 130.601L88.5766 131.724ZM128.215 113.864C110.168 116.455 92.6795 126.447 90.5197 127.708L94.5542 134.616C96.6257 133.407 112.96 124.136 129.352 121.783L128.215 113.864ZM167.589 120.623C168.62 116.758 168.619 116.758 168.619 116.757C168.618 116.757 168.617 116.757 168.617 116.757C168.615 116.756 168.613 116.756 168.611 116.755C168.607 116.754 168.601 116.753 168.595 116.751C168.581 116.747 168.563 116.743 168.54 116.737C168.493 116.725 168.428 116.707 168.343 116.686C168.174 116.643 167.931 116.582 167.617 116.506C166.991 116.355 166.087 116.144 164.949 115.901C162.674 115.416 159.453 114.8 155.642 114.27C148.067 113.215 137.947 112.467 128.215 113.864L129.352 121.783C138.032 120.536 147.315 121.188 154.539 122.193C158.127 122.693 161.156 123.273 163.28 123.725C164.342 123.952 165.174 124.146 165.736 124.282C166.016 124.349 166.228 124.403 166.367 124.438C166.437 124.456 166.488 124.469 166.52 124.477C166.535 124.481 166.547 124.484 166.553 124.486C166.556 124.487 166.558 124.487 166.559 124.488C166.559 124.488 166.559 124.488 166.559 124.488C166.559 124.488 166.558 124.488 166.558 124.488C166.558 124.487 166.557 124.487 167.589 120.623ZM149.059 18.4052L163.628 121.184L171.549 120.061L156.979 17.2824L149.059 18.4052ZM114.393 16.2924C127.009 14.481 136.241 15.8167 142.213 17.5162C145.206 18.3681 147.399 19.3169 148.805 20.0238C149.508 20.3774 150.014 20.6708 150.325 20.8615C150.48 20.9568 150.587 21.0265 150.645 21.0653C150.674 21.0846 150.691 21.0962 150.695 21.0994C150.697 21.101 150.697 21.1005 150.693 21.0978C150.691 21.0965 150.688 21.0946 150.685 21.0922C150.683 21.0909 150.681 21.0896 150.679 21.0881C150.678 21.0873 150.676 21.0861 150.676 21.0857C150.674 21.0844 150.672 21.0831 153.019 17.8438C155.366 14.6044 155.364 14.6031 155.362 14.6017C155.361 14.6011 155.359 14.5997 155.358 14.5987C155.355 14.5966 155.352 14.5944 155.348 14.592C155.342 14.5873 155.335 14.5821 155.326 14.5763C155.31 14.5647 155.291 14.5509 155.268 14.535C155.222 14.5033 155.164 14.4632 155.092 14.4154C154.949 14.3198 154.754 14.1934 154.508 14.042C154.014 13.7392 153.312 13.3358 152.4 12.8771C150.575 11.9593 147.913 10.8207 144.403 9.82175C137.367 7.81957 127.002 6.39992 113.256 8.3736L114.393 16.2924ZM80.8781 31.0017C81.0363 30.8085 90.1295 19.7763 114.393 16.2924L113.256 8.3736C86.685 12.1888 75.8894 24.4665 74.6882 25.9336L80.8781 31.0017ZM39.3744 27.0638C62.6431 23.7228 74.4814 31.0838 75.5852 31.8097L79.9811 25.1257C77.5157 23.5043 63.7371 15.4837 38.2374 19.145L39.3744 27.0638Z" fill="black" mask="url(#path-1-inside-1)"/>
<path d="M121.287 7.92111L125.773 39.1697L116.113 35.9573L115.164 35.6417L114.343 36.2115L105.976 42.0122L101.49 10.7636C101.82 10.5544 102.261 10.3003 102.825 10.0249C104.458 9.22638 107.138 8.2404 111.147 7.66469C115.157 7.08898 118.005 7.28127 119.798 7.58789C120.416 7.69362 120.911 7.81336 121.287 7.92111Z" fill="white" stroke="black" stroke-width="4"/>
</svg>
