<svg width="74" height="46" viewBox="0 0 74 46" fill="none" xmlns="http://www.w3.org/2000/svg">
<path fill-rule="evenodd" clip-rule="evenodd" d="M13.1427 45.2415C35.6198 45.6394 77.7214 44.3474 72.8639 30.5208C64.2627 6.03812 42.9372 3.44001 23.2608 1.04281C22.0499 0.895287 20.8453 0.748523 19.6503 0.597467C3.04927 11.5867 -9.33442 44.8436 13.1427 45.2415ZM16.9022 20.307H15.2702L11.5982 31H13.0092L13.9272 28.28H18.1772L19.0952 31H20.4892L16.9022 20.307ZM17.8372 27.226H14.2842L16.0692 21.956L17.8372 27.226ZM26.3746 22.67C25.3319 22.67 24.5386 23.1403 23.9946 24.081V19.423H22.6516V31H23.5866L23.8926 29.572C24.1419 30.1047 24.4819 30.507 24.9126 30.779C25.3546 31.051 25.8476 31.187 26.3916 31.187C27.4002 31.187 28.2559 30.796 28.9586 30.014C29.6612 29.2207 30.0126 28.1893 30.0126 26.92C30.0126 25.6393 29.6669 24.6137 28.9756 23.843C28.2842 23.061 27.4172 22.67 26.3746 22.67ZM24.6746 24.489C25.1052 24.0697 25.6436 23.86 26.2896 23.86C26.9356 23.86 27.4852 24.1377 27.9386 24.693C28.4032 25.2483 28.6356 25.9907 28.6356 26.92C28.6356 27.8493 28.4032 28.5973 27.9386 29.164C27.4739 29.7193 26.9242 29.997 26.2896 29.997C25.6549 29.997 25.1109 29.776 24.6576 29.334C24.2156 28.8807 23.9946 28.28 23.9946 27.532V26.206C24.0172 25.4693 24.2439 24.897 24.6746 24.489ZM38.2403 23.775C37.549 23.0383 36.6366 22.67 35.5033 22.67C34.37 22.67 33.452 23.0383 32.7493 23.775C32.058 24.5117 31.7123 25.5657 31.7123 26.937C31.7123 28.297 32.058 29.3453 32.7493 30.082C33.452 30.8187 34.37 31.187 35.5033 31.187C36.6366 31.187 37.549 30.8187 38.2403 30.082C38.943 29.3453 39.2943 28.297 39.2943 26.937C39.2943 25.5657 38.943 24.5117 38.2403 23.775ZM37.3223 24.659C37.7303 25.203 37.9343 25.9623 37.9343 26.937C37.9343 27.9003 37.719 28.6597 37.2883 29.215C36.8576 29.759 36.2456 30.031 35.4523 30.031C34.6703 30.031 34.081 29.759 33.6843 29.215C33.2876 28.6597 33.0893 27.9003 33.0893 26.937C33.0893 25.9623 33.299 25.203 33.7183 24.659C34.1376 24.1037 34.7383 23.826 35.5203 23.826C36.3136 23.826 36.9143 24.1037 37.3223 24.659ZM44.6816 31.153C45.9282 31.153 46.8292 30.5637 47.3846 29.385V31H48.7276V22.857H47.3846V26.954C47.3619 27.838 47.1182 28.5633 46.6536 29.13C46.2002 29.6967 45.6052 29.98 44.8686 29.98C43.5992 29.98 42.9646 29.2943 42.9646 27.923V22.857H41.6216V28.025C41.6216 29.0903 41.8992 29.878 42.4546 30.388C43.0212 30.898 43.7636 31.153 44.6816 31.153ZM53.7501 31.051C54.5548 31.3117 55.4445 31.2153 56.4191 30.762L56.2321 29.81C55.7108 30.014 55.2405 30.116 54.8211 30.116C54.0505 30.116 53.6651 29.7023 53.6651 28.875V23.894H56.2151V22.874H53.6651V20.613H52.3391V22.874H51.0301V23.894H52.3391V28.892C52.3391 29.2887 52.4015 29.6287 52.5261 29.912C52.7641 30.49 53.1721 30.8697 53.7501 31.051Z" fill="#BACED7"/>
</svg>
