<svg width="350" height="352" viewBox="0 0 350 352" fill="none" xmlns="http://www.w3.org/2000/svg">
<path d="M233.943 157.93C230.83 81.0795 46.385 104.095 35.3835 196.674C29.1021 249.533 144.01 264.939 201.766 245.128C245.166 230.24 235.279 190.902 233.943 157.93Z" fill="#937D6C"/>
<path d="M98.6115 78.7122C143.911 65.4245 236.763 65.7701 273.032 106.002C307.227 143.935 247.237 148.849 210.001 134.198C172.765 119.546 58.8633 130.77 31.0432 133.168C3.22315 135.566 -7.12078 109.051 19.7501 105.7C46.621 102.348 53.312 91.9998 98.6115 78.7122Z" fill="#3E3833"/>
<path d="M2.04966 306.914C39.5005 172.705 400.233 294.168 343.823 323.099C287.413 352.03 165.322 351.599 56.3225 351.599C9.78436 351.599 -6.12378 336.204 2.04966 306.914Z" fill="#8D8A86"/>
<path d="M143.741 77.3688C112.847 83.1785 85.2607 56.1097 103.136 28.2809C121.011 0.452025 124.9 28.4636 149.8 18.8706C174.701 9.27756 182.358 70.1068 143.741 77.3688Z" fill="#ABADAE"/>
</svg>
