<svg width="108" height="43" viewBox="0 0 108 43" fill="none" xmlns="http://www.w3.org/2000/svg">
<path fill-rule="evenodd" clip-rule="evenodd" d="M107.657 21.5572C99.5563 47.9541 1.4313 48.6951 1.36289 26.627C1.35891 25.3424 1.27012 24.0221 1.18055 22.6903C0.610001 14.2064 0.00787735 5.25299 21.0953 2.04206C53.5633 -2.90173 112.283 6.48564 107.657 21.5572ZM21.5681 22.892L16.2641 14.307H14.6661V25H16.0261V16.296L21.4151 25H22.9111V14.307H21.5681V22.892ZM31.0638 22.62C30.9051 23.606 30.2648 24.099 29.1428 24.099C28.4061 24.099 27.8338 23.8327 27.4258 23.3C27.0178 22.756 26.8138 22.0647 26.8138 21.226H32.3728C32.5428 19.9567 32.3445 18.88 31.7778 17.996C31.2225 17.112 30.3725 16.67 29.2278 16.67C28.0945 16.67 27.1821 17.0553 26.4908 17.826C25.8108 18.5967 25.4708 19.628 25.4708 20.92C25.4708 22.212 25.8108 23.249 26.4908 24.031C27.1708 24.8017 28.0548 25.187 29.1428 25.187C30.0268 25.187 30.7635 24.966 31.3528 24.524C31.9535 24.0707 32.3161 23.436 32.4408 22.62H31.0638ZM29.1768 17.741C29.5508 17.741 29.8681 17.809 30.1288 17.945C30.8201 18.319 31.1658 19.0727 31.1658 20.206H26.8308C26.8988 19.5033 27.1311 18.9197 27.5278 18.455C27.9358 17.979 28.4855 17.741 29.1768 17.741ZM37.0418 23.351L35.0698 16.874H33.6758L36.3788 25H37.6708L39.5068 19.305L41.3768 25H42.6858L45.3378 16.874H44.0118L42.0228 23.419L40.1018 17.265H38.9798L37.0418 23.351ZM54.856 15.344C56.1933 15.344 56.9583 15.8653 57.151 16.908H58.46C58.3693 16.058 58.018 15.3837 57.406 14.885C56.8053 14.375 55.9326 14.12 54.788 14.12C53.6433 14.12 52.7536 14.3863 52.119 14.919C51.4843 15.4403 51.167 16.0977 51.167 16.891C51.167 17.673 51.3936 18.268 51.847 18.676C52.3003 19.084 52.969 19.4353 53.853 19.73L55.74 20.427C56.284 20.6083 56.692 20.835 56.964 21.107C57.2473 21.379 57.389 21.753 57.389 22.229C57.389 22.6937 57.1623 23.1017 56.709 23.453C56.2556 23.793 55.638 23.963 54.856 23.963C54.0853 23.963 53.4506 23.776 52.952 23.402C52.4646 23.028 52.221 22.4897 52.221 21.787H50.912C50.9346 22.8637 51.32 23.7023 52.068 24.303C52.8273 24.8923 53.7963 25.187 54.975 25.187C56.1536 25.187 57.0943 24.9093 57.797 24.354C58.4996 23.7873 58.851 23.096 58.851 22.28C58.851 21.4527 58.6243 20.8123 58.171 20.359C57.729 19.9057 57.1283 19.5487 56.369 19.288L54.142 18.523C53.6093 18.353 53.224 18.1547 52.986 17.928C52.748 17.7013 52.629 17.3727 52.629 16.942C52.629 16.5 52.8216 16.126 53.207 15.82C53.5923 15.5027 54.142 15.344 54.856 15.344ZM63.3299 25.051C64.1346 25.3117 65.0243 25.2153 65.9989 24.762L65.8119 23.81C65.2906 24.014 64.8203 24.116 64.4009 24.116C63.6303 24.116 63.2449 23.7023 63.2449 22.875V17.894H65.7949V16.874H63.2449V14.613H61.9189V16.874H60.6099V17.894H61.9189V22.892C61.9189 23.2887 61.9813 23.6287 62.1059 23.912C62.3439 24.49 62.7519 24.8697 63.3299 25.051ZM73.8015 17.775C73.1102 17.0383 72.1979 16.67 71.0645 16.67C69.9312 16.67 69.0132 17.0383 68.3105 17.775C67.6192 18.5117 67.2735 19.5657 67.2735 20.937C67.2735 22.297 67.6192 23.3453 68.3105 24.082C69.0132 24.8187 69.9312 25.187 71.0645 25.187C72.1979 25.187 73.1102 24.8187 73.8015 24.082C74.5042 23.3453 74.8555 22.297 74.8555 20.937C74.8555 19.5657 74.5042 18.5117 73.8015 17.775ZM72.8835 18.659C73.2915 19.203 73.4955 19.9623 73.4955 20.937C73.4955 21.9003 73.2802 22.6597 72.8495 23.215C72.4189 23.759 71.8069 24.031 71.0135 24.031C70.2315 24.031 69.6422 23.759 69.2455 23.215C68.8489 22.6597 68.6505 21.9003 68.6505 20.937C68.6505 19.9623 68.8602 19.203 69.2795 18.659C69.6989 18.1037 70.2995 17.826 71.0815 17.826C71.8749 17.826 72.4755 18.1037 72.8835 18.659ZM81.4498 16.67C80.1578 16.67 79.2455 17.2593 78.7128 18.438L78.5598 16.874H77.4038V25H78.7468V21.005C78.7695 20.019 78.9905 19.2483 79.4098 18.693C79.8291 18.1377 80.3788 17.86 81.0588 17.86C81.7388 17.86 82.2601 18.0583 82.6228 18.455C82.9968 18.8517 83.1838 19.441 83.1838 20.223V25H84.5098V20.223C84.5098 19.1237 84.2378 18.2567 83.6938 17.622C83.1611 16.9873 82.4131 16.67 81.4498 16.67ZM92.39 22.62C92.2313 23.606 91.591 24.099 90.469 24.099C89.7323 24.099 89.16 23.8327 88.752 23.3C88.344 22.756 88.14 22.0647 88.14 21.226H93.699C93.869 19.9567 93.6706 18.88 93.104 17.996C92.5486 17.112 91.6986 16.67 90.554 16.67C89.4206 16.67 88.5083 17.0553 87.817 17.826C87.137 18.5967 86.797 19.628 86.797 20.92C86.797 22.212 87.137 23.249 87.817 24.031C88.497 24.8017 89.381 25.187 90.469 25.187C91.353 25.187 92.0896 24.966 92.679 24.524C93.2796 24.0707 93.6423 23.436 93.767 22.62H92.39ZM90.503 17.741C90.877 17.741 91.1943 17.809 91.455 17.945C92.1463 18.319 92.492 19.0727 92.492 20.206H88.157C88.225 19.5033 88.4573 18.9197 88.854 18.455C89.262 17.979 89.8116 17.741 90.503 17.741Z" fill="#8D8A86"/>
</svg>
