<svg width="108" height="85" viewBox="0 0 108 85" fill="none" xmlns="http://www.w3.org/2000/svg">
<path fill-rule="evenodd" clip-rule="evenodd" d="M44.6695 30.6592C47.193 31.3516 49.9804 31.8817 52.6562 31.9547C23.6983 31.82 -6.9619 31.7975 1.39815 41.4963C5.73176 46.5238 13.2796 50.0674 22.3133 52.3701C2.24373 63.0197 -10.4786 88.3025 32.7809 84.6406C39.2601 84.403 46.5967 84.3702 54.0823 84.3368C83.3594 84.2062 114.916 84.0654 106.369 71.6146C100.943 63.7107 91.4024 57.4785 80.4317 53.2627C82.9216 52.7444 85.2249 52.1545 87.2912 51.5C109.447 44.4817 121.053 29.2261 75.0673 31.8966C68.5868 32.0297 61.2502 31.9951 53.7647 31.9599L53.6855 31.9595C59.1876 31.8558 63.9954 29.6032 64.7134 22.5362C66.2044 7.85935 57.6663 -2.02555 50.0281 1.73507C42.3898 5.49568 32.4314 28.8418 44.6695 30.6592ZM37.1385 41.344C38.4758 41.344 39.2408 41.8653 39.4335 42.908H40.7425C40.6518 42.058 40.3005 41.3837 39.6885 40.885C39.0878 40.375 38.2152 40.12 37.0705 40.12C35.9258 40.12 35.0362 40.3863 34.4015 40.919C33.7668 41.4403 33.4495 42.0977 33.4495 42.891C33.4495 43.673 33.6761 44.268 34.1295 44.676C34.5828 45.084 35.2515 45.4353 36.1355 45.73L38.0225 46.427C38.5665 46.6083 38.9745 46.835 39.2465 47.107C39.5298 47.379 39.6715 47.753 39.6715 48.229C39.6715 48.6937 39.4448 49.1017 38.9915 49.453C38.5382 49.793 37.9205 49.963 37.1385 49.963C36.3678 49.963 35.7332 49.776 35.2345 49.402C34.7472 49.028 34.5035 48.4897 34.5035 47.787H33.1945C33.2171 48.8637 33.6025 49.7023 34.3505 50.303C35.1098 50.8923 36.0788 51.187 37.2575 51.187C38.4362 51.187 39.3768 50.9093 40.0795 50.354C40.7822 49.7873 41.1335 49.096 41.1335 48.28C41.1335 47.4527 40.9068 46.8123 40.4535 46.359C40.0115 45.9057 39.4108 45.5487 38.6515 45.288L36.4245 44.523C35.8918 44.353 35.5065 44.1547 35.2685 43.928C35.0305 43.7013 34.9115 43.3727 34.9115 42.942C34.9115 42.5 35.1042 42.126 35.4895 41.82C35.8748 41.5027 36.4245 41.344 37.1385 41.344ZM45.6125 51.051C46.4171 51.3117 47.3068 51.2153 48.2815 50.762L48.0945 49.81C47.5731 50.014 47.1028 50.116 46.6835 50.116C45.9128 50.116 45.5275 49.7023 45.5275 48.875V43.894H48.0775V42.874H45.5275V40.613H44.2015V42.874H42.8925V43.894H44.2015V48.892C44.2015 49.2887 44.2638 49.6287 44.3885 49.912C44.6265 50.49 45.0345 50.8697 45.6125 51.051ZM56.0841 43.775C55.3927 43.0383 54.4804 42.67 53.3471 42.67C52.2137 42.67 51.2957 43.0383 50.5931 43.775C49.9017 44.5117 49.5561 45.5657 49.5561 46.937C49.5561 48.297 49.9017 49.3453 50.5931 50.082C51.2957 50.8187 52.2137 51.187 53.3471 51.187C54.4804 51.187 55.3927 50.8187 56.0841 50.082C56.7867 49.3453 57.1381 48.297 57.1381 46.937C57.1381 45.5657 56.7867 44.5117 56.0841 43.775ZM55.1661 44.659C55.5741 45.203 55.7781 45.9623 55.7781 46.937C55.7781 47.9003 55.5627 48.6597 55.1321 49.215C54.7014 49.759 54.0894 50.031 53.2961 50.031C52.5141 50.031 51.9247 49.759 51.5281 49.215C51.1314 48.6597 50.9331 47.9003 50.9331 46.937C50.9331 45.9623 51.1427 45.203 51.5621 44.659C51.9814 44.1037 52.5821 43.826 53.3641 43.826C54.1574 43.826 54.7581 44.1037 55.1661 44.659ZM63.7323 42.67C62.4403 42.67 61.528 43.2593 60.9953 44.438L60.8423 42.874H59.6863V51H61.0293V47.005C61.052 46.019 61.273 45.2483 61.6923 44.693C62.1117 44.1377 62.6613 43.86 63.3413 43.86C64.0213 43.86 64.5427 44.0583 64.9053 44.455C65.2793 44.8517 65.4663 45.441 65.4663 46.223V51H66.7923V46.223C66.7923 45.1237 66.5203 44.2567 65.9763 43.622C65.4437 42.9873 64.6957 42.67 63.7323 42.67ZM74.6725 48.62C74.5138 49.606 73.8735 50.099 72.7515 50.099C72.0148 50.099 71.4425 49.8327 71.0345 49.3C70.6265 48.756 70.4225 48.0647 70.4225 47.226H75.9815C76.1515 45.9567 75.9532 44.88 75.3865 43.996C74.8312 43.112 73.9812 42.67 72.8365 42.67C71.7032 42.67 70.7908 43.0553 70.0995 43.826C69.4195 44.5967 69.0795 45.628 69.0795 46.92C69.0795 48.212 69.4195 49.249 70.0995 50.031C70.7795 50.8017 71.6635 51.187 72.7515 51.187C73.6355 51.187 74.3722 50.966 74.9615 50.524C75.5622 50.0707 75.9248 49.436 76.0495 48.62H74.6725ZM72.7855 43.741C73.1595 43.741 73.4768 43.809 73.7375 43.945C74.4288 44.319 74.7745 45.0727 74.7745 46.206H70.4395C70.5075 45.5033 70.7398 44.9197 71.1365 44.455C71.5445 43.979 72.0942 43.741 72.7855 43.741ZM29.7342 66.344C31.0715 66.344 31.8365 66.8653 32.0292 67.908H33.3382C33.2475 67.058 32.8962 66.3837 32.2842 65.885C31.6835 65.375 30.8109 65.12 29.6662 65.12C28.5215 65.12 27.6319 65.3863 26.9972 65.919C26.3625 66.4403 26.0452 67.0977 26.0452 67.891C26.0452 68.673 26.2719 69.268 26.7252 69.676C27.1785 70.084 27.8472 70.4353 28.7312 70.73L30.6182 71.427C31.1622 71.6083 31.5702 71.835 31.8422 72.107C32.1255 72.379 32.2672 72.753 32.2672 73.229C32.2672 73.6937 32.0405 74.1017 31.5872 74.453C31.1339 74.793 30.5162 74.963 29.7342 74.963C28.9635 74.963 28.3289 74.776 27.8302 74.402C27.3429 74.028 27.0992 73.4897 27.0992 72.787H25.7902C25.8129 73.8637 26.1982 74.7023 26.9462 75.303C27.7055 75.8923 28.6745 76.187 29.8532 76.187C31.0319 76.187 31.9725 75.9093 32.6752 75.354C33.3779 74.7873 33.7292 74.096 33.7292 73.28C33.7292 72.4527 33.5025 71.8123 33.0492 71.359C32.6072 70.9057 32.0065 70.5487 31.2472 70.288L29.0202 69.523C28.4875 69.353 28.1022 69.1547 27.8642 68.928C27.6262 68.7013 27.5072 68.3727 27.5072 67.942C27.5072 67.5 27.6999 67.126 28.0852 66.82C28.4705 66.5027 29.0202 66.344 29.7342 66.344ZM38.2082 76.051C39.0128 76.3117 39.9025 76.2153 40.8772 75.762L40.6902 74.81C40.1688 75.014 39.6985 75.116 39.2792 75.116C38.5085 75.116 38.1232 74.7023 38.1232 73.875V68.894H40.6732V67.874H38.1232V65.613H36.7972V67.874H35.4882V68.894H36.7972V73.892C36.7972 74.2887 36.8595 74.6287 36.9842 74.912C37.2222 75.49 37.6302 75.8697 38.2082 76.051ZM47.5918 69.149C47.8978 69.4663 48.0508 69.9933 48.0508 70.73V71.767C47.2574 71.4723 46.4244 71.325 45.5518 71.325C44.6791 71.325 43.9481 71.529 43.3588 71.937C42.7808 72.345 42.4918 72.9117 42.4918 73.637C42.4918 74.3623 42.7524 74.9687 43.2738 75.456C43.8064 75.9433 44.5091 76.187 45.3818 76.187C46.6851 76.187 47.5861 75.6713 48.0848 74.64L48.2208 76H49.3768V70.764C49.3768 69.7213 49.0934 68.945 48.5268 68.435C47.9601 67.925 47.1724 67.67 46.1638 67.67C45.6878 67.67 45.2458 67.7153 44.8378 67.806C43.5004 68.1007 42.8318 68.8713 42.8318 70.118H44.3108C44.3108 69.6193 44.4864 69.2567 44.8378 69.03C45.2004 68.792 45.6708 68.673 46.2488 68.673C46.8381 68.673 47.2858 68.8317 47.5918 69.149ZM45.9428 72.277C46.5434 72.277 47.2461 72.3903 48.0508 72.617C48.0508 73.365 47.8128 73.977 47.3368 74.453C46.8721 74.9177 46.3111 75.15 45.6538 75.15C44.4978 75.15 43.9198 74.64 43.9198 73.62C43.9198 73.1553 44.1068 72.8153 44.4808 72.6C44.8548 72.3847 45.3421 72.277 45.9428 72.277ZM57.5295 68.418C56.9628 67.9193 56.1978 67.67 55.2345 67.67C54.2825 67.67 53.4495 68.0497 52.7355 68.809C52.0215 69.5683 51.6645 70.5997 51.6645 71.903C51.6645 73.195 52.0215 74.232 52.7355 75.014C53.4608 75.796 54.3391 76.187 55.3705 76.187C56.3451 76.187 57.1328 75.9207 57.7335 75.388C58.3455 74.844 58.6515 74.1357 58.6515 73.263H57.2745C57.2745 73.8183 57.1101 74.249 56.7815 74.555C56.4641 74.8497 55.9768 74.997 55.3195 74.997C54.6735 74.997 54.1295 74.7137 53.6875 74.147C53.2568 73.5803 53.0415 72.8323 53.0415 71.903C53.0415 70.9623 53.2625 70.22 53.7045 69.676C54.1578 69.132 54.7471 68.86 55.4725 68.86C55.8691 68.86 56.2318 68.996 56.5605 69.268C56.8891 69.5287 57.1271 69.897 57.2745 70.373L58.6345 70.254C58.4645 69.5173 58.0961 68.9053 57.5295 68.418ZM62.6235 72.583L63.7115 71.699L66.9585 76H68.6075L64.6805 70.917L68.4205 67.874H66.5505L62.6235 71.155V64.423H61.2805V76H62.6235V72.583ZM75.6022 73.62C75.4435 74.606 74.8032 75.099 73.6812 75.099C72.9445 75.099 72.3722 74.8327 71.9642 74.3C71.5562 73.756 71.3522 73.0647 71.3522 72.226H76.9112C77.0812 70.9567 76.8828 69.88 76.3162 68.996C75.7608 68.112 74.9108 67.67 73.7662 67.67C72.6328 67.67 71.7205 68.0553 71.0292 68.826C70.3492 69.5967 70.0092 70.628 70.0092 71.92C70.0092 73.212 70.3492 74.249 71.0292 75.031C71.7092 75.8017 72.5932 76.187 73.6812 76.187C74.5652 76.187 75.3018 75.966 75.8912 75.524C76.4918 75.0707 76.8545 74.436 76.9792 73.62H75.6022ZM73.7152 68.741C74.0892 68.741 74.4065 68.809 74.6672 68.945C75.3585 69.319 75.7042 70.0727 75.7042 71.206H71.3692C71.4372 70.5033 71.6695 69.9197 72.0662 69.455C72.4742 68.979 73.0238 68.741 73.7152 68.741ZM80.9512 72.039C80.9965 70.0217 81.6595 69.013 82.9402 69.013C83.2915 69.013 83.6372 69.0697 83.9772 69.183L84.0452 67.874C83.7505 67.772 83.4389 67.721 83.1102 67.721C82.0789 67.721 81.3592 68.2877 80.9512 69.421V67.857H79.6082V76H80.9512V72.039Z" fill="#B2987E"/>
</svg>
